# xmcd
#
# Track frame offsets:
#	150
#	26019
#	48262
#	75020
#	105387
#	126672
#	147633
#	181887
#	203849
#	228893
#	250497
#	272193
#
# Disc length: 3888 seconds
#
# Revision: 3
# Processed by: cddbd v1.5.2PL0 Copyright (c) Steve Scherf et al.
# Submitted via: EZCDAudioConverter 8.0.2.1
#
DISCID=a30f2e0c
DTITLE=Như Quỳnh - Duyên Phận
DYEAR=2010
DGENRE=Miscellaneous
TTITLE0=Như Quỳnh - Duyên Phận
TTITLE1=Như Quỳnh - Buồn trong kỷ niệm
TTITLE2=Như Quỳnh - Chuyện tình cô lái đò bến Hạ
TTITLE3=Như Quỳnh - LK Thế rồi một mùa hè, Kỷ niệm nào buồn
TTITLE4=Như Quỳnh, Trường Vũ - Không phải tại chúng mình
TTITLE5=Như Quỳnh - Ngang trái
TTITLE6=Như Quỳnh - LK Nước cuốn hoa trôi, Tình nàng La Lan
TTITLE7=Như Quỳnh - Tà áo cưới
TTITLE8=Như Quỳnh - Từ đó em buồn
TTITLE9=Như Quỳnh, Lý Duy Vũ - LK Làm dâu xứ lạ, Năm 17 tuổi
TTITLE10=Như Quỳnh - Đoạn cuối một cuộc tình
TTITLE11=Như Quỳnh - Mơ ánh trăng về
EXTD=
EXTT0=
EXTT1=
EXTT2=
EXTT3=
EXTT4=
EXTT5=
EXTT6=
EXTT7=
EXTT8=
EXTT9=
EXTT10=
EXTT11=
PLAYORDER=
